<?xml version="1.0" encoding="UTF-8"?>
<svg width="107px" height="37px" viewBox="0 0 107 37" version="1.1" xmlns="http://www.w3.org/2000/svg" xmlns:xlink="http://www.w3.org/1999/xlink">
    <!-- Generator: Sketch 64 (93537) - https://sketch.com -->
    <title>both@2x</title>
    <desc>Created with Sketch.</desc>
    <g id="Page-1" stroke="none" stroke-width="1" fill="none" fill-rule="evenodd">
        <g id="Splash-screen" transform="translate(-134.000000, -388.000000)" fill="#0C2333" fill-rule="nonzero">
            <path d="M150.608,424.947556 C153.68,424.947556 156.344,423.803556 158.6,421.515556 C160.856,419.227556 161.984,416.227556 161.984,412.515556 C161.984,409.987556 161.392,407.819556 160.208,406.011556 C159.024,404.203556 157.592,402.907556 155.912,402.123556 C154.232,401.339556 152.464,400.947556 150.608,400.947556 C148.848,400.947556 147.408,401.299556 146.288,402.003556 L146.288,402.003556 L146.288,389.571556 C146.288,388.867556 146.032,388.403556 145.52,388.179556 C145.008,387.955556 144.432,388.019556 143.792,388.371556 L143.792,388.371556 L135.44,392.211556 C134.864,392.467556 134.48,392.699556 134.288,392.907556 C134.096,393.115556 134,393.379556 134,393.699556 L134,393.699556 L134,393.891556 C134,394.275556 134.208,394.667556 134.624,395.067556 C135.04,395.467556 135.456,395.923556 135.872,396.435556 C136.288,396.947556 136.496,397.539556 136.496,398.211556 L136.496,398.211556 L136.496,418.707556 C136.496,419.571556 136.168,420.443556 135.512,421.323556 C134.856,422.203556 134.528,422.851556 134.528,423.267556 L134.528,423.267556 L134.528,423.459556 C134.528,424.131556 134.928,424.467556 135.728,424.467556 L135.728,424.467556 L143.792,424.467556 C144.72,424.467556 145.184,424.019556 145.184,423.123556 C146.56,424.339556 148.368,424.947556 150.608,424.947556 Z M149.792,422.403556 C148.896,422.403556 148.088,421.851556 147.368,420.747556 C146.648,419.643556 146.288,418.403556 146.288,417.027556 L146.288,417.027556 L146.288,407.283556 C146.288,404.755556 146.976,403.491556 148.352,403.491556 C149.344,403.491556 150.176,404.379556 150.848,406.155556 C151.52,407.931556 151.96,409.795556 152.168,411.747556 C152.376,413.699556 152.48,415.587556 152.48,417.411556 C152.48,420.739556 151.584,422.403556 149.792,422.403556 Z M177.152,424.947556 C180.8,424.947556 183.936,423.819556 186.56,421.563556 C189.184,419.307556 190.496,416.435556 190.496,412.947556 C190.496,409.459556 189.184,406.587556 186.56,404.331556 C183.936,402.075556 180.8,400.947556 177.152,400.947556 C173.536,400.947556 170.4,402.075556 167.744,404.331556 C165.088,406.587556 163.76,409.459556 163.76,412.947556 C163.76,416.435556 165.088,419.307556 167.744,421.563556 C170.4,423.819556 173.536,424.947556 177.152,424.947556 Z M178.304,422.355556 C177.248,422.355556 176.312,421.395556 175.496,419.475556 C174.68,417.555556 174.12,415.595556 173.816,413.595556 C173.512,411.595556 173.36,409.955556 173.36,408.675556 C173.36,406.851556 173.504,405.539556 173.792,404.739556 C174.08,403.939556 174.656,403.539556 175.52,403.539556 C176.608,403.539556 177.56,404.547556 178.376,406.563556 C179.192,408.579556 179.752,410.587556 180.056,412.587556 C180.36,414.587556 180.512,416.163556 180.512,417.315556 C180.512,419.043556 180.368,420.315556 180.08,421.131556 C179.792,421.947556 179.2,422.355556 178.304,422.355556 Z M202.736,424.947556 C205.36,424.947556 207.424,424.139556 208.928,422.523556 C210.432,420.907556 211.184,419.043556 211.184,416.931556 C211.184,416.451556 210.96,416.155556 210.512,416.043556 C210.064,415.931556 209.648,416.083556 209.264,416.499556 C208.4,417.523556 207.392,418.035556 206.24,418.035556 C205.664,418.035556 205.192,417.835556 204.824,417.435556 C204.456,417.035556 204.272,416.499556 204.272,415.827556 L204.272,415.827556 L204.272,405.027556 L208.784,405.027556 C209.136,405.027556 209.424,404.907556 209.648,404.667556 C209.872,404.427556 209.984,404.147556 209.984,403.827556 L209.984,403.827556 L209.984,402.627556 C209.984,402.275556 209.872,401.987556 209.648,401.763556 C209.424,401.539556 209.136,401.427556 208.784,401.427556 L208.784,401.427556 L204.272,401.427556 L204.272,396.531556 C204.272,396.115556 204.144,395.787556 203.888,395.547556 C203.632,395.307556 203.296,395.187556 202.88,395.187556 L202.88,395.187556 L201.584,395.187556 C200.848,395.187556 200.368,395.635556 200.144,396.531556 C199.792,398.003556 199.024,399.187556 197.84,400.083556 C196.656,400.979556 195.28,401.427556 193.712,401.427556 L193.712,401.427556 L193.04,401.427556 C192.24,401.427556 191.84,401.827556 191.84,402.627556 L191.84,402.627556 L191.84,403.827556 C191.84,404.147556 191.952,404.427556 192.176,404.667556 C192.4,404.907556 192.688,405.027556 193.04,405.027556 L193.04,405.027556 L194.48,405.027556 L194.48,415.635556 C194.48,418.611556 195.224,420.907556 196.712,422.523556 C198.2,424.139556 200.208,424.947556 202.736,424.947556 Z M224.768,424.467556 C225.568,424.467556 225.968,424.131556 225.968,423.459556 L225.968,423.459556 L225.968,423.267556 C225.968,422.851556 225.6,422.203556 224.864,421.323556 C224.128,420.443556 223.76,419.571556 223.76,418.707556 L223.76,418.707556 L223.76,408.579556 C223.76,405.827556 224.544,404.451556 226.112,404.451556 C227.008,404.451556 227.64,404.859556 228.008,405.675556 C228.376,406.491556 228.624,407.923556 228.752,409.971556 L228.752,409.971556 L229.232,418.707556 C229.296,419.571556 229.024,420.443556 228.416,421.323556 C227.808,422.203556 227.504,422.851556 227.504,423.267556 L227.504,423.267556 L227.504,423.459556 C227.504,424.131556 227.904,424.467556 228.704,424.467556 L228.704,424.467556 L239.312,424.467556 C240.112,424.467556 240.512,424.131556 240.512,423.459556 L240.512,423.459556 L240.512,423.267556 C240.512,422.819556 240.24,422.155556 239.696,421.275556 C239.152,420.395556 238.848,419.539556 238.784,418.707556 L238.784,418.707556 L238.112,410.307556 C237.856,406.979556 236.856,404.587556 235.112,403.131556 C233.368,401.675556 231.328,400.947556 228.992,400.947556 C226.72,400.947556 224.88,401.571556 223.472,402.819556 L223.472,402.819556 L223.472,389.283556 C223.472,388.675556 223.296,388.283556 222.944,388.107556 C222.592,387.931556 222.112,387.971556 221.504,388.227556 L221.504,388.227556 L212.96,391.971556 C212.16,392.355556 211.76,392.851556 211.76,393.459556 L211.76,393.459556 L211.76,393.651556 C211.76,394.035556 211.968,394.411556 212.384,394.779556 C212.8,395.147556 213.208,395.563556 213.608,396.027556 C214.008,396.491556 214.208,397.059556 214.208,397.731556 L214.208,397.731556 L214.208,418.707556 C214.208,419.571556 213.84,420.443556 213.104,421.323556 C212.368,422.203556 212,422.851556 212,423.267556 L212,423.267556 L212,423.459556 C212,424.131556 212.4,424.467556 213.2,424.467556 L213.2,424.467556 L224.768,424.467556 Z" id="both"></path>
        </g>
    </g>
</svg>