<?xml version="1.0" encoding="UTF-8"?>
<svg width="228px" height="217px" viewBox="0 0 228 217" version="1.1" xmlns="http://www.w3.org/2000/svg" xmlns:xlink="http://www.w3.org/1999/xlink">
    <!-- Generator: Sketch 64 (93537) - https://sketch.com -->
    <title>Group@2x</title>
    <desc>Created with Sketch.</desc>
    <g id="Page-1" stroke="none" stroke-width="1" fill="none" fill-rule="evenodd" opacity="0.8">
        <g id="1.1---Dashboard-&amp;-tasks-Copy" transform="translate(-73.000000, -255.000000)" fill="#37D37D" fill-rule="nonzero">
            <g id="Modal" transform="translate(24.000000, 128.000000)">
                <g id="Group" transform="translate(49.000000, 127.000000)">
                    <path d="M86.4323204,31.6472376 C83.5794199,27.7729282 77.6857735,31.9759669 80.3508287,35.9794199 C81.0435083,37.0360497 81.8066298,38.0457182 82.5345304,39.0201657 C91.304558,50.8661602 95.8480663,65.2480663 99.7575967,79.4538674 C100.720304,82.9759669 101.64779,86.6741713 100.555939,90.1140884 C102.129144,80.8861878 101.107735,71.329558 98.7361878,62.2777624 C96.3646409,53.2259669 92.7486188,44.5616022 88.8860497,35.9559392 C88.2204805,34.4381441 87.3981037,32.9940661 86.4323204,31.6472376 Z" id="Path" opacity="0.5"></path>
                    <path d="M29.5151934,56.525 C23.6450276,56.3371547 22.8466851,65.3185083 28.7403315,65.7881215 C30.2900552,65.9055249 31.839779,65.9407459 33.3308011,65.9877072 C51.4461326,66.4808011 68.5517956,73.0319061 85.0469613,80.076105 C89.0856354,81.813674 93.2651934,83.7625691 95.695442,87.4725138 C88.2755525,78.8668508 78.4958564,72.5622928 68.105663,67.9248619 C57.7154696,63.2874309 46.6325967,60.2466851 35.5614641,57.3585635 C33.5829791,56.8584243 31.5552033,56.5788669 29.5151934,56.525 L29.5151934,56.525 Z" id="Path"></path>
                    <path d="M31.1470994,78.6085635 C27.413674,78.7377072 28.2589779,84.0560773 32.015884,84.079558 C33.0020718,84.079558 33.9882597,84.079558 34.9274862,84.009116 C46.3508287,83.5395028 58.0559392,86.6976519 69.4088398,90.1610497 C72.2030387,91.0180939 75.1381215,91.9808011 77.1691989,94.0705801 C71.1407132,89.4162188 64.307694,85.9101676 57.0110497,83.7273481 C49.8272454,81.5899094 42.4976373,79.9772387 35.0801105,78.9020718 C33.7826722,78.669374 32.4647052,78.5710183 31.1470994,78.6085635 L31.1470994,78.6085635 Z" id="Path" opacity="0.2"></path>
                    <path d="M107.623619,177.29779 C108.680249,180.890331 113.611188,178.753591 112.707182,175.102348 C112.472376,174.151381 112.190608,173.212155 111.92058,172.308149 C108.633287,161.35442 108.785912,149.226657 109.325967,137.368923 C109.466851,134.45732 109.666436,131.369613 111.180939,128.892403 C108.171667,135.884493 106.472428,143.3699 106.167818,150.975967 C105.874559,158.470978 106.129612,165.977401 106.930939,173.435221 C107.033091,174.742539 107.265128,176.036442 107.623619,177.29779 Z" id="Path" opacity="0.5"></path>
                    <path d="M37.9564917,26.634116 C35.7140884,26.2466851 35.5379834,29.5222376 37.7803867,30.0153315 C38.3674033,30.1444751 38.9544199,30.2501381 39.5296961,30.3440608 C46.4095304,31.5180939 52.9958564,34.8875691 59.3356354,38.3979282 C60.9700351,39.146561 62.3937927,40.287987 63.4799724,41.720442 C60.4678227,38.1734876 56.8307888,35.2089469 52.7493094,32.973895 C48.7296837,30.7888798 44.5590741,28.8938615 40.269337,27.3033149 C39.5206479,27.009482 38.7464077,26.7854633 37.9564917,26.634116 L37.9564917,26.634116 Z" id="Path" opacity="0.2"></path>
                    <path d="M3.22859116,113.477348 C-2.47720994,116.412431 2.3480663,124.478039 8.20649171,121.801243 C9.74447514,121.096823 11.2354972,120.310221 12.6678177,119.57058 C30.1139503,110.518785 50.3660221,107.196271 70.301105,104.625138 C75.1850829,104.002901 80.3977901,103.451105 84.929558,105.38826 C72.5904696,101.86616 59.464779,101.619613 46.7734807,103.040193 C34.0821823,104.460773 21.7430939,107.736326 9.52140884,111.05884 C7.34702599,111.648946 5.23850726,112.459309 3.22859116,113.477348 L3.22859116,113.477348 Z" id="Path"></path>
                    <path d="M19.5359116,144.859254 C15.4267956,148.686602 21.8839779,153.20663 26.1339779,149.555387 C27.308011,148.59268 28.3294199,147.571271 29.3625691,146.608564 C41.8542818,134.868232 58.3729282,126.532597 74.8211326,118.830939 C78.8598066,116.940746 95.4723757,115.015331 99.910221,115.120994 C88.3225138,116.154144 64.6892265,119.817127 54.1229282,124.51326 C43.8071799,129.415736 33.8362666,135.013098 24.2790055,141.266713 C22.5885962,142.312521 21.0005395,143.515356 19.5359116,144.859254 L19.5359116,144.859254 Z" id="Path" opacity="0.5"></path>
                    <path d="M48.7928177,194.966989 C47.6187845,200.437983 55.426105,200.520166 56.8819061,195.049171 C57.2575967,193.616851 57.5628453,192.17279 57.8563536,190.799171 C61.4723757,174.045718 70.3128453,157.773619 79.4703039,142.100276 C81.7244475,138.249448 94.2983425,127.213536 98.0082873,124.783287 C89.0621547,132.226657 71.6512431,148.651381 65.7106354,158.571961 C60.0114628,168.471246 54.986923,178.7439 50.6712707,189.31989 C49.866845,191.138191 49.2378407,193.029135 48.7928177,194.966989 L48.7928177,194.966989 Z" id="Path"></path>
                    <path d="M107.68232,2.61339779 C104.888122,-3.08066298 96.9046961,1.60372928 99.4640884,7.45041436 C100.133287,8.97665746 100.872928,10.4676796 101.589088,11.9 C110.183011,29.2991713 113.141575,49.4690608 115.360497,69.204558 C115.900552,74.0650552 116.358425,79.2308011 114.38605,83.6921271 C117.990331,71.5174033 118.471685,58.509116 117.22721,45.9117403 C115.982735,33.3143646 113.012431,21.0809392 109.912983,8.88273481 C109.38457,6.72253398 108.637146,4.62187899 107.68232,2.61339779 L107.68232,2.61339779 Z" id="Path"></path>
                    <path d="M63.1864641,12.3109116 C63.3329079,12.3966972 63.4982303,12.4450842 63.6678177,12.4517956 C63.9730663,12.4517956 64.1961326,12.1348066 64.3252762,11.8530387 C65.0179558,10.3385359 64.6187845,8.33093923 65.698895,7.15690608 C66.7905916,8.46754599 67.6700545,9.94124056 68.3052486,11.5243094 L72.4026243,10.2563536 C72.7889446,11.8621458 72.509472,13.5559189 71.6277624,14.9524862 C72.344166,15.270099 72.9966441,15.7156938 73.5531768,16.2674033 C74.1183051,16.8378576 74.3136153,17.6781455 74.058011,18.4393646 C73.1131978,18.667769 72.1410331,18.7626144 71.1698895,18.7211326 C71.3229119,20.5233138 71.2161578,22.338133 70.8529006,24.1099448 C70.8334657,24.3755134 70.7061998,24.6215607 70.5006906,24.790884 C70.2071823,24.9904696 69.808011,24.790884 69.5027624,24.6265193 C68.0937097,23.7638859 66.9326944,22.5502811 66.1332873,21.1044199 L64.5718232,24.6030387 C64.4608947,24.9764325 64.219155,25.2973629 63.890884,25.5070442 C63.415189,25.6753419 62.8861324,25.4957539 62.6111878,25.0726519 C62.3619191,24.6495123 62.2095531,24.1763756 62.1650552,23.6872928 L61.589779,20.1651934 C61.5830668,19.9846491 61.5170473,19.8113479 61.4019337,19.6720994 C61.2305442,19.5422609 61.0175697,19.4796213 60.8031768,19.4959945 C59.3473757,19.4959945 57.9033149,19.4959945 56.4592541,19.4959945 C56.2127072,18.7211326 56.9758287,18.0049724 57.7154696,17.6879834 C58.4551105,17.3709945 59.3356354,17.1127072 59.711326,16.396547 C60.4627072,14.9290055 58.5372928,12.8744475 59.3356354,11.6299724 C60.3453039,10.2211326 61.9185083,11.688674 63.1864641,12.3109116 Z" id="Path"></path>
                    <path d="M142.304558,31.6472376 C145.157459,27.7729282 151.039365,31.9759669 148.38605,35.9794199 C147.68163,37.0360497 146.930249,38.0457182 146.202348,39.0201657 C137.43232,50.8661602 132.888812,65.2480663 128.967541,79.4538674 C128.004834,82.9759669 127.077348,86.6741713 128.180939,90.1140884 C126.607735,80.8861878 127.629144,71.329558 130.000691,62.2777624 C132.372238,53.2259669 136.035221,44.5616022 139.839088,35.9911602 C140.51116,34.4631658 141.337253,33.0076671 142.304558,31.6472376 L142.304558,31.6472376 Z" id="Path" opacity="0.5"></path>
                    <path d="M199.209945,56.525 C205.08011,56.3371547 205.878453,65.3185083 199.984807,65.7881215 C198.446823,65.9055249 196.885359,65.9407459 195.406077,65.9877072 C177.279006,66.4808011 160.185083,73.0319061 143.689917,80.076105 C139.651243,81.813674 135.401243,83.7625691 133.041436,87.4725138 C140.461326,78.8668508 150.229282,72.5622928 160.631215,67.9248619 C171.033149,63.2874309 182.092541,60.2466851 193.175414,57.3585635 C195.150081,56.8592813 197.173872,56.5797304 199.209945,56.525 L199.209945,56.525 Z" id="Path"></path>
                    <path d="M197.578039,78.6085635 C201.323204,78.7377072 200.477901,84.0560773 196.720994,84.079558 C195.734807,84.079558 194.748619,84.079558 193.809392,84.009116 C182.374309,83.5395028 170.680939,86.6976519 159.328039,90.1610497 C156.53384,91.0180939 153.587017,91.9808011 151.56768,94.0705801 C157.596165,89.4162188 164.429184,85.9101676 171.725829,83.7273481 C178.928225,81.5791998 186.27756,79.9586577 193.71547,78.8785912 C194.990542,78.6581439 196.284696,78.5676711 197.578039,78.6085635 Z" id="Path" opacity="0.5"></path>
                    <path d="M190.780387,26.634116 C193.02279,26.2466851 193.198895,29.5222376 190.956492,30.0153315 C190.369475,30.1444751 189.782459,30.2501381 189.207182,30.3440608 C182.327348,31.5180939 175.729282,34.8875691 169.389503,38.3979282 C167.758594,39.1469442 166.338738,40.2884763 165.256906,41.720442 C168.264826,38.1738494 171.897951,35.2092511 175.975829,32.973895 C180.000559,30.7910039 184.174918,28.8960646 188.467541,27.3033149 C189.216231,27.009482 189.990471,26.7854633 190.780387,26.634116 L190.780387,26.634116 Z" id="Path" opacity="0.2"></path>
                    <path d="M132.207873,184.095442 C131.703039,186.326105 128.615331,185.269475 129.026243,182.921409 C129.131906,182.334392 129.27279,181.747376 129.401934,181.18384 C130.963398,174.386188 130.399862,167.001519 129.601519,159.804696 C129.543308,158.010707 129.03893,156.259505 128.133978,154.709392 C130.245661,158.849524 131.578791,163.34237 132.066989,167.964227 C132.537714,172.519023 132.67505,177.102124 132.477901,181.676934 C132.471911,182.49028 132.381416,183.300803 132.207873,184.095442 L132.207873,184.095442 Z" id="Path" opacity="0.2"></path>
                    <path d="M189.336326,169.290884 C191.097376,172.272928 186.776934,172.073343 184.875,169.091298 C184.381906,168.316436 183.924033,167.529834 183.489641,166.743232 C178.13605,157.644475 170,148.639641 161.793508,139.940055 C159.850227,137.684802 157.583151,135.730289 155.066298,134.140331 C161.46525,138.507906 167.370143,143.558558 172.676796,149.203177 C177.936464,154.709392 182.585635,160.450414 187.140884,166.179696 C187.943267,167.165118 188.676818,168.204641 189.336326,169.290884 Z" id="Path" opacity="0.5"></path>
                    <path d="M33.0372928,169.290884 C31.2762431,172.272928 35.5966851,172.073343 37.4868785,169.091298 C37.9917127,168.316436 38.4495856,167.529834 38.8839779,166.743232 C44.2375691,157.644475 52.3736188,148.639641 60.5801105,139.940055 C62.5206649,137.682077 64.7881752,135.727191 67.3073204,134.140331 C60.9059837,138.504789 55.0007659,143.555718 49.6968232,149.203177 C44.4371547,154.709392 39.7762431,160.450414 35.2327348,166.179696 C34.4303515,167.165118 33.6968013,168.204641 33.0372928,169.290884 L33.0372928,169.290884 Z" id="Path" opacity="0.2"></path>
                    <path d="M90.2009669,184.095442 C90.7058011,186.326105 93.7935083,185.269475 93.3825967,182.921409 C93.2769337,182.334392 93.1360497,181.747376 93.0069061,181.18384 C91.445442,174.386188 92.0089779,167.001519 92.8073204,159.804696 C92.8655318,158.010707 93.3699101,156.259505 94.2748619,154.709392 C92.1794199,158.864364 90.8661323,163.369339 90.4005525,167.999448 C89.9298276,172.554244 89.7924915,177.137345 89.9896409,181.712155 C89.9787369,182.511707 90.0495465,183.310283 90.2009669,184.095442 L90.2009669,184.095442 Z" id="Path" opacity="0.2"></path>
                    <path d="M172.770718,48.9994475 C175.013122,48.6002762 175.189227,51.8758287 172.946823,52.380663 C172.359807,52.5098066 171.77279,52.6037293 171.197514,52.6976519 C164.31768,53.8716851 157.731354,57.2529006 151.379834,60.7632597 C149.748933,61.5068574 148.328723,62.644639 147.247238,64.0740331 C150.25649,60.5272679 153.894258,57.566109 157.977901,55.3392265 C161.992745,53.1446283 166.164062,51.2492885 170.457873,49.6686464 C171.202892,49.3641446 171.978208,49.1398144 172.770718,48.9994475 Z" id="Path" opacity="0.2"></path>
                    <path d="M151.767265,5.09060773 C153.70442,3.91657459 155.089779,6.86339779 153.187845,8.16657459 C152.694751,8.5070442 152.178177,8.81229282 151.696823,9.11754144 C145.744475,12.7805249 140.895718,18.3689227 136.328729,24.0042818 C135.086382,25.2972043 134.193492,26.885013 133.734116,28.618232 C135.199035,24.2040773 137.463466,20.0970598 140.414365,16.5022099 C143.324366,12.9707094 146.486914,9.65513451 149.877072,6.58162983 C150.45683,6.02397026 151.08993,5.52456828 151.767265,5.09060773 L151.767265,5.09060773 Z" id="Path" opacity="0.2"></path>
                    <path d="M225.508287,113.477348 C231.214088,116.412431 226.388812,124.478039 220.530387,121.801243 C218.992403,121.096823 217.489641,120.310221 216.069061,119.57058 C198.622928,110.518785 178.359116,107.196271 158.435773,104.625138 C153.551796,104.002901 148.339088,103.451105 143.80732,105.38826 C156.134669,101.86616 169.272099,101.619613 181.963398,103.040193 C194.654696,104.460773 206.993785,107.736326 219.21547,111.05884 C221.389198,111.650947 223.497517,112.461234 225.508287,113.477348 Z" id="Path"></path>
                    <path d="M209.200967,144.859254 C213.298343,148.686602 206.852901,153.20663 202.59116,149.555387 C201.475829,148.59268 200.395718,147.571271 199.374309,146.608564 C186.870856,134.868232 170.35221,126.532597 153.915746,118.830939 C149.877072,116.940746 133.252762,115.015331 128.826657,115.120994 C140.414365,116.154144 164.047652,119.817127 174.61395,124.51326 C184.933515,129.415649 194.908339,135.013004 204.469613,141.266713 C206.155951,142.313133 207.740054,143.515951 209.200967,144.859254 L209.200967,144.859254 Z" id="Path" opacity="0.5"></path>
                    <path d="M160.842541,201.212845 C161.347376,206.789503 153.551796,205.908978 152.800414,200.285359 C152.600829,198.817818 152.483425,197.350276 152.366022,195.941436 C150.875,178.870994 144.14779,161.624448 137.021409,144.917956 C135.272099,140.82058 124.177486,128.305387 120.796271,125.429006 C128.744475,133.929006 143.959945,152.431768 148.609116,162.998066 C153.022575,173.529208 156.717499,184.347256 159.668508,195.377901 C160.238613,197.282601 160.631626,199.235874 160.842541,201.212845 L160.842541,201.212845 Z" id="Path"></path>
                    <path d="M165.538674,12.3109116 C165.39223,12.3966972 165.226908,12.4450842 165.05732,12.4517956 C164.740331,12.4517956 164.529006,12.1348066 164.399862,11.8530387 C163.695442,10.3385359 164.106354,8.33093923 163.026243,7.15690608 C161.934546,8.46754599 161.055084,9.94124056 160.41989,11.5243094 L156.322514,10.2563536 C155.930684,11.8619413 156.210515,13.5578824 157.097376,14.9524862 C156.377436,15.2700082 155.721086,15.7155306 155.160221,16.2674033 C154.601694,16.8417096 154.411337,17.6801864 154.667127,18.4393646 C155.611863,18.6682289 156.584092,18.7630806 157.555249,18.7211326 C157.404253,20.5228362 157.507006,22.3368177 157.860497,24.1099448 C157.885035,24.3740456 158.011344,24.6182446 158.212707,24.790884 C158.517956,24.9904696 158.917127,24.790884 159.222376,24.6265193 C160.631428,23.7638859 161.792444,22.5502811 162.591851,21.1044199 L164.118094,24.7439227 C164.22507,25.1192961 164.467769,25.4414989 164.799033,25.6479282 C165.271249,25.8192178 165.799014,25.6384093 166.066989,25.2135359 C166.324868,24.7934528 166.481613,24.3191969 166.524862,23.8281768 L167.088398,20.3060773 C167.10467,20.1255848 167.174129,19.9539783 167.287983,19.8129834 C167.459373,19.6831449 167.672347,19.6205053 167.88674,19.6368785 C169.330801,19.6368785 170.786602,19.6368785 172.230663,19.6368785 C172.47721,18.8620166 171.702348,18.1458564 170.962707,17.8288674 C170.223066,17.5118785 169.354282,17.2535912 168.978591,16.5374309 C168.22721,15.0698895 170.152624,13.0153315 169.342541,11.7708564 C168.391575,10.2211326 166.81837,11.688674 165.538674,12.3109116 Z" id="Path"></path>
                    <path d="M177.912983,181.113398 C177.76654,181.199183 177.601217,181.24757 177.43163,181.254282 C177.114641,181.254282 176.903315,180.949033 176.774171,180.667265 C176.081492,179.141022 176.480663,177.145166 175.400552,175.900691 C174.311363,177.213104 173.432144,178.686389 172.794199,180.268094 L168.696823,179.000138 C168.310503,180.60593 168.589975,182.299703 169.471685,183.696271 C168.755281,184.013884 168.102803,184.459478 167.546271,185.011188 C166.981142,185.581642 166.785832,186.42193 167.041436,187.183149 C167.985718,187.415349 168.957869,187.514145 169.929558,187.476657 C169.776361,189.274936 169.883122,191.085907 170.246547,192.853729 C170.265538,193.122727 170.392586,193.372588 170.598757,193.546409 C170.892265,193.734254 171.291436,193.546409 171.596685,193.370304 C173.005738,192.50767 174.166753,191.294066 174.96616,189.848204 L176.492403,193.487707 C176.606387,193.862652 176.847087,194.186352 177.173343,194.403453 C177.651345,194.540806 178.164028,194.362073 178.453039,193.95732 C178.702307,193.534181 178.854673,193.061044 178.899171,192.571961 L179.474448,189.108564 C179.460861,188.906265 179.544854,188.709671 179.700424,188.579642 C179.855994,188.449614 180.064372,188.401838 180.26105,188.451105 C181.70511,188.451105 183.160912,188.392403 184.604972,188.451105 C184.851519,187.676243 184.088398,186.971823 183.348757,186.643094 C182.609116,186.314365 181.728591,186.079558 181.352901,185.351657 C180.601519,183.895856 182.526934,181.829558 181.728591,180.596823 C180.801105,179.023619 179.180939,180.49116 177.912983,181.113398 Z" id="Path" opacity="0.2"></path>
                    <path d="M212.652624,67.9600829 C212.504767,68.0524542 212.333869,68.1012822 212.15953,68.1009669 C211.854282,68.1009669 211.642956,67.7957182 211.513812,67.5139503 C210.809392,65.9994475 211.208564,63.9918508 210.140193,62.7473757 C209.049026,64.0627122 208.169675,65.5401808 207.53384,67.1265193 L203.436464,65.8468232 C203.043242,67.4523578 203.323163,69.1488497 204.211326,70.5429558 C203.489705,70.8574351 202.832829,71.3033146 202.274171,71.8578729 C201.721072,72.4349056 201.52743,73.2680165 201.769337,74.0298343 C202.717603,74.2620617 203.693632,74.3608501 204.669199,74.3233425 C204.517906,76.1211406 204.620666,77.9312887 204.974448,79.7004144 C204.998435,79.9680011 205.12457,80.2160666 205.326657,80.3930939 C205.631906,80.5809392 206.019337,80.3930939 206.324586,80.2287293 C207.736256,79.3655816 208.900967,78.1523406 209.705801,76.7066298 L211.220304,80.3461326 C211.330633,80.7229089 211.572181,81.0477497 211.901243,81.2618785 C212.37964,81.4234373 212.906667,81.239703 213.180939,80.8157459 C213.440811,80.3965915 213.597718,79.921849 213.638812,79.4303867 L214.202348,75.9082873 C214.218103,75.7332817 214.283246,75.5663518 214.390193,75.4269337 C214.563612,75.2921796 214.782144,75.2291415 215.000691,75.2508287 C216.444751,75.2508287 217.888812,75.2508287 219.332873,75.2508287 C219.59116,74.4877072 218.816298,73.771547 218.076657,73.4428177 C217.337017,73.1140884 216.456492,72.8792818 216.092541,72.1631215 C215.34116,70.6955801 217.266575,68.6410221 216.456492,67.396547 C215.493785,65.8703039 213.90884,67.3378453 212.652624,67.9600829 Z" id="Path"></path>
                    <path d="M73.7762431,198.042956 C73.5738793,198.165537 73.3434937,198.234248 73.1070442,198.242541 C72.6726519,198.242541 72.3674033,197.808149 72.1912983,197.408978 C71.2168508,195.307459 71.7803867,192.560221 70.2776243,190.787431 C68.7593367,192.61351 67.5353534,194.665365 66.6498619,196.868923 L60.9323204,195.107873 C60.396752,197.344162 60.7861888,199.701948 62.0124309,201.647238 C61.0087921,202.082761 60.0965817,202.70418 59.323895,203.478729 C58.546426,204.275322 58.275102,205.437493 58.6194751,206.495994 C59.9401633,206.8194 61.2993891,206.957693 62.6581492,206.906906 C62.4443737,209.415515 62.5906535,211.941808 63.0925414,214.408978 C63.1222663,214.776772 63.2951,215.118224 63.573895,215.359945 C64.0465556,215.551912 64.5870567,215.461072 64.9709945,215.125138 C66.9472295,213.908104 68.5671794,212.190958 69.6671271,210.147238 L71.7921271,215.219061 C71.943213,215.743874 72.2815775,216.195026 72.7430939,216.487017 C73.4075469,216.719384 74.1447362,216.467188 74.5276243,215.876519 C74.8771315,215.289647 75.0898179,214.631523 75.1498619,213.951105 L75.9482044,209.125829 C75.9574624,208.873146 76.0480509,208.630204 76.2064917,208.433149 C76.449933,208.253872 76.7507674,208.170307 77.0517956,208.198343 C79.0711326,208.198343 81.0904696,208.11616 83.0980663,208.198343 C83.4502762,207.118232 82.3701657,206.132044 81.3487569,205.674171 C80.3273481,205.216298 79.0946133,204.887569 78.5780387,203.889641 C77.5214088,201.846823 80.2451657,199.005663 79.0828729,197.244613 C77.7327348,195.131354 75.5372928,197.185912 73.7762431,198.042956 Z" id="Path"></path>
                    <path d="M16.0020718,71.3412983 C15.7954252,71.4638878 15.5612598,71.5325225 15.3211326,71.540884 C14.8984807,71.540884 14.593232,71.1064917 14.4053867,70.7073204 C13.4426796,68.5940608 13.9944751,65.8585635 12.503453,64.0740331 C10.9813825,65.9038989 9.7535082,67.9595981 8.86395028,70.1672652 L3.15814917,68.3944751 C2.61100585,70.6341475 3.00109045,73.0000954 4.23825967,74.9455801 C3.23295125,75.3780688 2.32019726,75.9998575 1.54972376,76.7770718 C0.764939212,77.5696385 0.492588763,78.7362062 0.845303867,79.794337 C2.16634008,80.1150016 3.5257279,80.2493597 4.8839779,80.1935083 C4.67143398,82.7016326 4.81371945,85.2271997 5.30662983,87.6955801 C5.33241466,88.0704145 5.51061362,88.4183268 5.79972376,88.6582873 C6.22237569,88.9283149 6.76243094,88.6582873 7.1968232,88.4234807 C9.17024845,87.2029986 10.7894021,85.4866957 11.8929558,83.4455801 L14.0179558,88.5174033 C14.1753922,89.0357457 14.5072149,89.4837064 14.9571823,89.7853591 C15.6216353,90.0177266 16.3588246,89.7655302 16.7417127,89.1748619 C17.0949717,88.5888208 17.3116624,87.9307232 17.3756906,87.2494475 L18.1622928,82.4124309 C18.1826554,82.1636657 18.2766621,81.9266052 18.4323204,81.7314917 C18.6731595,81.5469309 18.9761005,81.4627806 19.2776243,81.4966851 C21.285221,81.4966851 23.304558,81.4145028 25.323895,81.4262431 C25.6643646,80.3578729 24.5959945,79.3599448 23.5628453,78.9138122 C22.5296961,78.4676796 21.3087017,78.1154696 20.7921271,77.1175414 C19.7472376,75.0747238 22.4592541,72.2453039 21.3087017,70.4842541 C19.9585635,68.4296961 17.7631215,70.4607735 16.0020718,71.3412983 Z" id="Path"></path>
                    <path d="M191.367403,149.801934 C191.262722,149.870546 191.140356,149.907255 191.015193,149.907597 C190.780387,149.907597 190.627762,149.67279 190.522099,149.473204 C190.005525,148.299171 190.310773,146.890331 189.512431,145.951105 C188.702708,146.917843 188.052705,148.007788 187.587017,149.179696 L184.546271,148.24047 C184.239651,149.443408 184.448113,150.719706 185.121547,151.762569 C184.589357,151.998545 184.104137,152.328654 183.689227,152.737017 C183.281382,153.165447 183.141606,153.783165 183.325276,154.345442 C184.025216,154.509025 184.743593,154.580073 185.462017,154.556768 C185.346147,155.887783 185.42525,157.228584 185.696823,158.53674 C185.709355,158.736819 185.802567,158.923242 185.95511,159.053315 C186.178177,159.194199 186.471685,159.053315 186.694751,158.924171 C187.740893,158.276164 188.599027,157.365408 189.183702,156.282597 L190.357735,158.971133 C190.442037,159.249747 190.62048,159.490437 190.862569,159.652072 C191.217432,159.772027 191.608509,159.63684 191.813536,159.323343 C192.000479,159.012809 192.112993,158.663212 192.142265,158.301934 L192.564917,155.730801 C192.556334,155.580935 192.619913,155.435996 192.73599,155.340813 C192.852067,155.24563 193.006652,155.211674 193.151934,155.249448 C194.232044,155.249448 195.300414,155.249448 196.368785,155.249448 C196.55663,154.674171 195.981354,154.145856 195.441298,153.91105 C194.901243,153.676243 194.267265,153.488398 193.962017,152.960083 C193.410221,151.868232 194.854282,150.36547 194.232044,149.437983 C193.609807,148.510497 192.259669,149.344061 191.367403,149.801934 Z" id="Path" opacity="0.2"></path>
                    <path d="M112.836326,195.119613 C112.72719,195.187982 112.601156,195.224573 112.472376,195.225276 C112.249309,195.225276 112.084945,194.99047 111.991022,194.779144 C111.474448,193.663812 111.767956,192.208011 110.981354,191.257044 C110.170293,192.229302 109.516641,193.322683 109.044199,194.497376 L106.015193,193.558149 C105.710024,194.76115 105.918391,196.036864 106.59047,197.080249 C106.055924,197.311965 105.569963,197.642578 105.158149,198.054696 C104.741373,198.478057 104.596349,199.098941 104.782459,199.663122 C105.486211,199.82773 106.208602,199.898785 106.930939,199.874448 C106.816286,201.204972 106.891393,202.54504 107.154006,203.85442 C107.168318,204.050694 107.261493,204.23281 107.412293,204.359254 C107.635359,204.511878 107.928867,204.359254 108.151934,204.241851 C109.202386,203.595441 110.0647,202.684546 110.652624,201.600276 L111.826657,204.288812 C111.91096,204.567426 112.089403,204.808117 112.331492,204.969751 C112.686354,205.089707 113.077431,204.954519 113.282459,204.641022 C113.469402,204.330488 113.581916,203.980892 113.611188,203.619613 L114.03384,201.048481 C114.042882,200.915701 114.092008,200.788792 114.174724,200.68453 C114.305711,200.594697 114.462137,200.549416 114.620856,200.555387 C115.689227,200.555387 116.757597,200.555387 117.837707,200.555387 C118.013812,199.98011 117.450276,199.451796 116.898481,199.216989 C116.346685,198.982182 115.724448,198.794337 115.430939,198.266022 C114.867403,197.174171 116.311464,195.671409 115.700967,194.743923 C115.09047,193.816436 113.775552,194.65 112.836326,195.119613 Z" id="Path" opacity="0.2"></path>
                    <path d="M36.8763812,36.5077348 C36.7708893,36.574589 36.6490429,36.6111429 36.5241713,36.6133978 C36.2917331,36.5717338 36.101714,36.4043361 36.0310773,36.1790055 C35.5145028,35.0049724 35.808011,33.5961326 35.0214088,32.6569061 C34.2104464,33.6249082 33.5567442,34.7144117 33.0842541,35.8854972 L30.0552486,34.9462707 C29.7543788,36.1494545 29.9624639,37.4234451 30.6305249,38.4683702 C30.0965143,38.6958326 29.6104866,39.0225069 29.1982044,39.4310773 C28.7838504,39.8557688 28.6391653,40.475202 28.8225138,41.0395028 C29.5244551,41.2148115 30.2483489,41.2860141 30.9709945,41.2508287 C30.8571255,42.5852669 30.932222,43.9290987 31.1940608,45.2425414 C31.2126528,45.4402447 31.3099607,45.6221683 31.4640884,45.7473757 C31.6871547,45.8882597 31.9689227,45.7473757 32.2037293,45.6299724 C33.2513922,44.9787235 34.1096656,44.0637717 34.6926796,42.9766575 L35.8667127,45.6769337 C35.9469093,45.9545223 36.126654,46.1927886 36.371547,46.3461326 C36.7264095,46.4660879 37.1174867,46.3309007 37.3225138,46.0174033 C37.5094571,45.7068696 37.621971,45.3572729 37.6512431,44.9959945 L38.073895,42.4366022 C38.0829372,42.3038224 38.1320634,42.1769131 38.214779,42.0726519 C38.3406679,41.9725086 38.5009942,41.9260984 38.6609116,41.9435083 C39.7292818,41.9435083 40.8093923,41.9435083 41.8777624,41.9435083 C42.0538674,41.3799724 41.4903315,40.8516575 40.9385359,40.6051105 C40.3867403,40.3585635 39.7645028,40.1824586 39.4709945,39.6541436 C38.9074586,38.5740331 40.3632597,37.0595304 39.7410221,36.1320442 C39.1187845,35.204558 37.8156077,36.0498619 36.8763812,36.5077348 Z" id="Path" opacity="0.5"></path>
                    <path d="M77.2983425,125.886878 C77.1942649,125.956778 77.0714997,125.993607 76.9461326,125.992541 C76.711326,125.992541 76.5587017,125.769475 76.464779,125.558149 C75.9482044,124.384116 76.2417127,122.975276 75.4433702,122.03605 C74.6401338,123.007379 73.9907663,124.096258 73.5179558,125.264641 L70.4772099,124.325414 C70.1833356,125.528879 70.3909677,126.800096 71.0524862,127.847514 C70.522925,128.081957 70.0412966,128.41233 69.6319061,128.821961 C69.2151298,129.245322 69.0701058,129.866206 69.2562155,130.430387 C69.9551524,130.599951 70.6743444,130.67108 71.3929558,130.641713 C71.2829487,131.976703 71.3619979,133.320539 71.6277624,134.633425 C71.6420746,134.8297 71.7352502,135.011816 71.8860497,135.13826 C72.109116,135.279144 72.4026243,135.13826 72.6256906,135.009116 C73.6761431,134.362706 74.5384569,133.451811 75.1263812,132.367541 L76.3004144,135.056077 C76.3780202,135.338006 76.5580423,135.580826 76.8052486,135.737017 C77.1566759,135.859822 77.5463341,135.723442 77.7444751,135.408287 C77.9355446,135.098784 78.0520982,134.749123 78.0849448,134.386878 L78.5075967,131.827486 C78.5071422,131.683593 78.5617486,131.544977 78.660221,131.440055 C78.7841737,131.336222 78.9461018,131.289348 79.1063536,131.310912 C80.1708103,131.310912 81.2391805,131.310912 82.3114641,131.310912 C82.4993094,130.747376 81.9357735,130.20732 81.3839779,129.972514 C80.8321823,129.737707 80.2099448,129.549862 79.9164365,129.021547 C79.3529006,127.941436 80.7969613,126.426934 80.1864641,125.499448 C79.5759669,124.571961 78.2375691,125.429006 77.2983425,125.886878 Z" id="Path" opacity="0.5"></path>
                    <path d="M47.9592541,91.0533149 C47.8505955,91.1129311 47.7305755,91.1489371 47.6070442,91.1589779 C47.3785338,91.1067121 47.1951361,90.9367338 47.1256906,90.7128453 C46.609116,89.5975138 46.9026243,88.1417127 46.1042818,87.1907459 C45.2967356,88.1633531 44.6470092,89.256795 44.1788674,90.4310773 L41.1381215,89.4918508 C40.8469877,90.6954208 41.054444,91.9655613 41.7133978,93.0139503 C41.1793872,93.2414127 40.6933596,93.568087 40.2810773,93.9766575 C39.8732324,94.405088 39.7334568,95.0228058 39.9171271,95.5850829 C40.6149812,95.7609359 41.3350859,95.832155 42.0538674,95.7964088 C41.9438603,97.1313992 42.0229095,98.4752354 42.288674,99.7881215 C42.3029862,99.9843961 42.3961618,100.166512 42.5469613,100.292956 C42.7700276,100.43384 43.0635359,100.292956 43.2866022,100.175552 C44.3357977,99.5225008 45.1974701,98.608238 45.7872928,97.5222376 L46.961326,100.222514 C47.0385796,100.49825 47.2139446,100.736245 47.4544199,100.891713 C47.8092825,101.011668 48.2003597,100.876481 48.4053867,100.562983 C48.5964562,100.25348 48.7130098,99.9038191 48.7458564,99.5415746 L49.156768,96.9821823 C49.1658102,96.8494025 49.2149364,96.7224932 49.2976519,96.618232 C49.4271454,96.5162352 49.5918196,96.4697886 49.7555249,96.4890884 C50.8199816,96.4890884 51.8883517,96.4890884 52.9606354,96.4890884 C53.1484807,95.9255525 52.5732044,95.3972376 52.0331492,95.1506906 C51.4930939,94.9041436 50.859116,94.7280387 50.5538674,94.1997238 C50.0020718,93.1196133 51.4461326,91.6051105 50.8356354,90.6776243 C50.2251381,89.7501381 48.8984807,90.5837017 47.9592541,91.0533149 Z" id="Path" opacity="0.5"></path>
                    <path d="M173.979972,99.2480663 C173.875895,99.3179656 173.75313,99.3547951 173.627762,99.3537293 C173.392956,99.3537293 173.240331,99.130663 173.146409,98.919337 C172.629834,97.7453039 172.923343,96.3364641 172.125,95.3972376 C171.31771,96.3657015 170.667948,97.4552409 170.199586,98.6258287 L167.15884,97.6866022 C166.864965,98.8900672 167.072597,100.161284 167.734116,101.208702 C167.201926,101.444677 166.716706,101.774786 166.301796,102.183149 C165.893951,102.61158 165.754175,103.229298 165.937845,103.791575 C166.636705,103.961595 167.355961,104.032731 168.074586,104.002901 C167.964579,105.337891 168.043628,106.681727 168.309392,107.994613 C168.323704,108.190888 168.41688,108.373004 168.56768,108.499448 C168.790746,108.640331 169.084254,108.499448 169.30732,108.370304 C170.357773,107.723894 171.220087,106.812999 171.808011,105.728729 L172.982044,108.417265 C173.05965,108.699194 173.239672,108.942014 173.486878,109.098204 C173.838292,109.21649 174.225156,109.081087 174.426105,108.769475 C174.617174,108.459972 174.733728,108.110311 174.766575,107.748066 L175.189227,105.188674 C175.176633,105.036816 175.238504,104.888288 175.355182,104.790278 C175.47186,104.692269 175.628838,104.656964 175.776243,104.69558 C176.848527,104.69558 177.916897,104.69558 178.981354,104.69558 C179.169199,104.132044 178.593923,103.591989 178.053867,103.357182 C177.513812,103.122376 176.879834,102.93453 176.574586,102.406215 C176.02279,101.326105 177.466851,99.8116022 176.856354,98.884116 C176.245856,97.9566298 174.930939,98.7901934 173.979972,99.2480663 Z" id="Path" opacity="0.5"></path>
                    <path d="M112.836326,92.3917127 C112.72719,92.4600815 112.601156,92.4966721 112.472376,92.4973757 C112.249309,92.4973757 112.084945,92.2743094 111.991022,92.0629834 C111.474448,90.8889503 111.767956,89.4801105 110.981354,88.540884 C110.170391,89.5088861 109.516689,90.5983896 109.044199,91.7694751 L106.015193,90.8302486 C105.714324,92.0334324 105.922409,93.307423 106.59047,94.3523481 C106.056459,94.5798105 105.570431,94.9064848 105.158149,95.3150552 C104.743795,95.7397467 104.59911,96.3591799 104.782459,96.9234807 C105.484312,97.0992956 106.208281,97.1705056 106.930939,97.1348066 C106.81707,98.4692448 106.892167,99.8130766 107.154006,101.126519 C107.17434,101.321058 107.266425,101.501042 107.412293,101.631354 C107.635359,101.772238 107.928867,101.631354 108.151934,101.51395 C109.203908,100.8643 110.066362,99.9492088 110.652624,98.8606354 L111.826657,101.560912 C111.906854,101.8385 112.086599,102.076767 112.331492,102.23011 C112.686354,102.350066 113.077431,102.214879 113.282459,101.901381 C113.469402,101.590848 113.581916,101.241251 113.611188,100.879972 L114.03384,98.3205801 C114.042882,98.1878003 114.092008,98.060891 114.174724,97.9566298 C114.300613,97.8564865 114.460939,97.8100763 114.620856,97.8274862 C115.689227,97.8274862 116.757597,97.8274862 117.837707,97.8274862 C118.013812,97.2639503 117.450276,96.7356354 116.898481,96.4890884 C116.346685,96.2425414 115.724448,96.0664365 115.430939,95.5381215 C114.867403,94.458011 116.311464,92.9435083 115.700967,92.0160221 C115.09047,91.0885359 113.775552,91.9338398 112.836326,92.3917127 Z" id="Path" opacity="0.2"></path>
                    <path d="M93.640884,100.750829 C93.5322254,100.810445 93.4122053,100.846451 93.288674,100.856492 C93.0601636,100.804226 92.8767659,100.634248 92.8073204,100.410359 C92.2907459,99.236326 92.5842541,97.8392265 91.7859116,96.8882597 C90.9759403,97.8591534 90.3259746,98.9529982 89.8604972,100.128591 L86.8197514,99.1776243 C86.5299758,100.381245 86.7373453,101.650854 87.3950276,102.699724 C86.861017,102.927186 86.3749894,103.25386 85.9627072,103.662431 C85.5548622,104.090862 85.4150866,104.708579 85.5987569,105.270856 C86.296611,105.446709 87.0167157,105.517929 87.7354972,105.482182 C87.6254902,106.817173 87.7045394,108.161009 87.9703039,109.473895 C87.9846161,109.67017 88.0777916,109.852285 88.2285912,109.978729 C88.4516575,110.119613 88.7451657,109.978729 88.968232,109.861326 C90.0174275,109.208274 90.8791,108.294011 91.4689227,107.208011 L92.6429558,109.908287 C92.7231523,110.185876 92.9028971,110.424142 93.1477901,110.577486 C93.4992032,110.695771 93.8860675,110.560369 94.0870166,110.248757 C94.278086,109.939253 94.3946396,109.589593 94.4274862,109.227348 L94.8501381,106.667956 C94.8550508,106.536305 94.9001145,106.409308 94.9792818,106.304006 C95.1087752,106.202009 95.2734494,106.155562 95.4371547,106.174862 C96.5094383,106.174862 97.5778085,106.174862 98.6422652,106.174862 C98.8301105,105.611326 98.2548343,105.083011 97.714779,104.836464 C97.1747238,104.589917 96.5407459,104.413812 96.2354972,103.885497 C95.6837017,102.805387 97.1277624,101.290884 96.5172652,100.363398 C95.906768,99.4359116 94.5801105,100.281215 93.640884,100.750829 Z" id="Path" opacity="0.3"></path>
                    <path d="M75.7603591,50.220442 C75.6512235,50.2888108 75.5251892,50.3254014 75.3964088,50.326105 C75.1733425,50.326105 75.0089779,50.1030387 74.9150552,49.8917127 C74.3984807,48.7176796 74.691989,47.3088398 73.9053867,46.3696133 C73.0944243,47.3376153 72.4407221,48.4271189 71.968232,49.5982044 L68.9392265,48.6589779 C68.632607,49.861916 68.8410691,51.1382146 69.5145028,52.1810773 C68.9823129,52.4170529 68.4970923,52.747162 68.0821823,53.1555249 C67.6654061,53.5788854 67.520382,54.1997696 67.7064917,54.7639503 C68.4094356,54.9333952 69.1324859,55.0045149 69.8549724,54.9752762 C69.7414172,56.309719 69.8165112,57.6535067 70.0780387,58.966989 C70.0983733,59.1615273 70.1904581,59.3415111 70.336326,59.4718232 C70.5593923,59.6127072 70.8529006,59.4718232 71.0759669,59.3426796 C72.129971,58.700652 72.9933034,57.7886812 73.5766575,56.701105 L74.7506906,59.3896409 C74.834993,59.6682551 75.013436,59.9089456 75.2555249,60.0705801 C75.6103874,60.1905354 76.0014646,60.0553482 76.2064917,59.7418508 C76.393435,59.4313172 76.5059489,59.0817204 76.535221,58.720442 L76.9578729,56.1610497 C76.9653967,56.0279371 77.0146946,55.9005843 77.0987569,55.7970994 C77.2246458,55.6969561 77.3849721,55.6505459 77.5448895,55.6679558 C78.6132597,55.6679558 79.6933702,55.6679558 80.7617403,55.6679558 C80.9378453,55.0926796 80.3743094,54.5643646 79.8225138,54.329558 C79.2707182,54.0947514 78.6484807,53.9069061 78.3549724,53.3785912 C77.7914365,52.2867403 79.2354972,50.7839779 78.625,49.8564917 C78.0145028,48.9290055 76.6995856,49.7625691 75.7603591,50.220442 Z" id="Path" opacity="0.2"></path>
                    <path d="M110.993094,116.177624 C110.87964,116.235769 110.756096,116.271637 110.629144,116.283287 C110.406077,116.283287 110.241713,116.048481 110.14779,115.837155 C109.631215,114.721823 109.924724,113.266022 109.138122,112.315055 C108.327061,113.287313 107.673409,114.380694 107.200967,115.555387 L104.171961,114.61616 C103.868234,115.819224 104.076506,117.094358 104.747238,118.13826 C104.213227,118.365722 103.727199,118.692396 103.314917,119.100967 C102.900563,119.525658 102.755878,120.145092 102.939227,120.709392 C103.641168,120.884701 104.365062,120.955904 105.087707,120.920718 C104.973838,122.255156 105.048935,123.598988 105.310773,124.912431 C105.331108,125.106969 105.423193,125.286953 105.569061,125.417265 C105.792127,125.558149 106.085635,125.417265 106.320442,125.299862 C107.366362,124.64649 108.224148,123.732057 108.809392,122.646547 L109.983425,125.346823 C110.063622,125.624412 110.243367,125.862678 110.48826,126.016022 C110.843122,126.135977 111.234199,126.00079 111.439227,125.687293 C111.62617,125.376759 111.738684,125.027162 111.767956,124.665884 L112.190608,122.106492 C112.19965,121.973712 112.248776,121.846803 112.331492,121.742541 C112.457381,121.642398 112.617707,121.595988 112.777624,121.613398 C113.845994,121.613398 114.926105,121.613398 115.994475,121.613398 C116.17058,121.049862 115.607044,120.521547 115.055249,120.275 C114.503453,120.028453 113.881215,119.852348 113.587707,119.324033 C113.024171,118.243923 114.468232,116.72942 113.857735,115.801934 C113.247238,114.874448 111.93232,115.68453 110.993094,116.177624 Z" id="Path" opacity="0.3"></path>
                </g>
            </g>
        </g>
    </g>
</svg>
