<?xml version="1.0" encoding="UTF-8"?>
<svg width="282px" height="214px" viewBox="0 0 282 214" version="1.1" xmlns="http://www.w3.org/2000/svg" xmlns:xlink="http://www.w3.org/1999/xlink">
    <!-- Generator: Sketch 64 (93537) - https://sketch.com -->
    <title>undraw_new_message_2gfk</title>
    <desc>Created with Sketch.</desc>
    <g id="Page-1" stroke="none" stroke-width="1" fill="none" fill-rule="evenodd">
        <g id="1.1---Modal-/-Invite-partner" transform="translate(-47.000000, -257.000000)" fill-rule="nonzero">
            <g id="Modal" transform="translate(24.000000, 128.000000)">
                <g id="undraw_new_message_2gfk" transform="translate(23.000000, 129.000000)">
                    <g id="Group-13" opacity="0.745675223" transform="translate(148.218750, 182.738627)">
                        <polygon id="Rectangle" fill="#FFFFFF" transform="translate(19.336405, 14.054894) rotate(-16.600000) translate(-19.336405, -14.054894) " points="2.92459197 4.31093743 35.7482183 4.31093743 35.7482183 23.7988508 2.92459197 23.7988508"></polygon>
                        <g id="Group" opacity="0.6" transform="translate(2.586562, 8.886685)" fill="#E1B674">
                            <polygon id="Rectangle" transform="translate(2.487131, 2.383160) rotate(163.400000) translate(-2.487131, -2.383160) " points="0.398561525 0.837812449 4.57570121 0.837812449 4.57570121 3.92850664 0.398561525 3.92850664"></polygon>
                            <polygon id="Rectangle" transform="translate(13.467906, 6.472398) rotate(163.400000) translate(-13.467906, -6.472398) " points="5.45091164 5.97133566 21.4849012 5.97133566 21.4849012 6.97346001 5.45091164 6.97346001"></polygon>
                            <polygon id="Rectangle" transform="translate(16.218463, 8.092138) rotate(163.400000) translate(-16.218463, -8.092138) " points="10.3727376 7.75809667 22.0641884 7.75809667 22.0641884 8.42617957 10.3727376 8.42617957"></polygon>
                        </g>
                    </g>
                    <g id="Group-11" opacity="0.745675223" transform="translate(240.000000, 101.000000)">
                        <polygon id="Rectangle" fill="#FFFFFF" transform="translate(18.453883, 12.934317) rotate(-79.027760) translate(-18.453883, -12.934317) " points="8.72699347 -3.44874994 28.1807731 -3.44874994 28.1807731 29.3173847 8.72699347 29.3173847"></polygon>
                        <g id="Group" opacity="0.6" transform="translate(5.173125, 1.554320)" fill="#7489E1">
                            <polygon id="Rectangle" transform="translate(2.437194, 2.045574) rotate(-168.980000) translate(-2.437194, -2.045574) " points="0.348624182 0.500226693 4.52576387 0.500226693 4.52576387 3.59092089 0.348624182 3.59092089"></polygon>
                            <polygon id="Rectangle" transform="translate(10.269836, 10.759566) rotate(-168.980000) translate(-10.269836, -10.759566) " points="2.25284139 10.258504 18.286831 10.258504 18.286831 11.2606283 2.25284139 11.2606283"></polygon>
                            <polygon id="Rectangle" transform="translate(11.955567, 13.472770) rotate(-168.980000) translate(-11.955567, -13.472770) " points="6.10984127 13.138729 17.801292 13.138729 17.801292 13.8068119 6.10984127 13.8068119"></polygon>
                        </g>
                    </g>
                    <g id="Group-12" opacity="0.75" transform="translate(217.657217, 146.762557)">
                        <polygon id="Rectangle" fill="#FFFFFF" transform="translate(15.779269, 18.980537) rotate(-23.450000) translate(-15.779269, -18.980537) " points="6.0353124 2.56872362 25.5232257 2.56872362 25.5232257 35.39235 6.0353124 35.39235"></polygon>
                        <g id="Group" opacity="0.6" transform="translate(9.845680, 1.724375)" fill="#FFA171">
                            <polygon id="Rectangle" transform="translate(6.949411, 2.751423) rotate(-113.450000) translate(-6.949411, -2.751423) " points="4.86084086 1.20607636 9.03798054 1.20607636 9.03798054 4.29677055 4.86084086 4.29677055"></polygon>
                            <polygon id="Rectangle" transform="translate(4.198577, 14.142184) rotate(-113.450000) translate(-4.198577, -14.142184) " points="-3.81841795 13.6411214 12.2155717 13.6411214 12.2155717 14.6432457 -3.81841795 14.6432457"></polygon>
                            <polygon id="Rectangle" transform="translate(2.914678, 17.066066) rotate(-113.450000) translate(-2.914678, -17.066066) " points="-2.93104699 16.732025 8.76040376 16.732025 8.76040376 17.4001079 -2.93104699 17.4001079"></polygon>
                        </g>
                    </g>
                    <g id="Group-15" opacity="0.75" transform="translate(111.000000, 48.000000)">
                        <polygon id="Rectangle" fill="#FFFFFF" transform="translate(18.863401, 14.587707) rotate(-16.600000) translate(-18.863401, -14.587707) " points="2.45158764 4.84375 35.275214 4.84375 35.275214 24.3316633 2.45158764 24.3316633"></polygon>
                        <g id="Group" opacity="0.6" transform="translate(1.937500, 9.575034)" fill="#F55F44">
                            <polygon id="Rectangle" transform="translate(2.645115, 2.233843) rotate(163.400000) translate(-2.645115, -2.233843) " points="0.556544842 0.688495599 4.73368453 0.688495599 4.73368453 3.77918979 0.556544842 3.77918979"></polygon>
                            <polygon id="Rectangle" transform="translate(13.628998, 6.322154) rotate(163.400000) translate(-13.628998, -6.322154) " points="5.61200291 5.82109228 21.6459925 5.82109228 21.6459925 6.82321663 5.61200291 6.82321663"></polygon>
                            <polygon id="Rectangle" transform="translate(16.376446, 7.942821) rotate(163.400000) translate(-16.376446, -7.942821) " points="10.530721 7.60877982 22.2221717 7.60877982 22.2221717 8.27686272 10.530721 8.27686272"></polygon>
                        </g>
                    </g>
                    <g id="Group-9" opacity="0.745675223" transform="translate(191.653882, 6.089389)">
                        <polygon id="Rectangle" fill="#FFFFFF" transform="translate(18.299846, 12.963063) rotate(-78.980000) translate(-18.299846, -12.963063) " points="8.55588971 -3.44874994 28.043803 -3.44874994 28.043803 29.3748764 8.55588971 29.3748764"></polygon>
                        <g id="Group" opacity="0.6" transform="translate(4.310937, 1.689547)" fill="#E87180">
                            <polygon id="Rectangle" transform="translate(2.604330, 2.218086) rotate(-168.980000) translate(-2.604330, -2.218086) " points="0.515760435 0.672738476 4.69290012 0.672738476 4.69290012 3.76343267 0.515760435 3.76343267"></polygon>
                            <polygon id="Rectangle" transform="translate(10.436972, 10.932078) rotate(-168.980000) translate(-10.436972, -10.932078) " points="2.41997765 10.4310157 18.4539672 10.4310157 18.4539672 11.4331401 2.41997765 11.4331401"></polygon>
                            <polygon id="Rectangle" transform="translate(12.123263, 13.642719) rotate(-168.980000) translate(-12.123263, -13.642719) " points="6.27753765 13.3086774 17.9689884 13.3086774 17.9689884 13.9767603 6.27753765 13.9767603"></polygon>
                        </g>
                    </g>
                    <g id="Group-10" opacity="0.745675223" transform="translate(203.000000, 44.000000)">
                        <polygon id="Rectangle" fill="#FFFFFF" transform="translate(15.779269, 19.690269) rotate(-23.450000) translate(-15.779269, -19.690269) " points="6.0353124 3.27845539 25.5232257 3.27845539 25.5232257 36.1020818 6.0353124 36.1020818"></polygon>
                        <g id="Group" opacity="0.6" transform="translate(10.002885, 2.586562)" fill="#71C2E8">
                            <polygon id="Rectangle" transform="translate(6.793712, 2.600532) rotate(-113.450000) translate(-6.793712, -2.600532) " points="4.70514202 1.05518529 8.88228171 1.05518529 8.88228171 4.14587948 4.70514202 4.14587948"></polygon>
                            <polygon id="Rectangle" transform="translate(4.039635, 13.991292) rotate(-113.450000) translate(-4.039635, -13.991292) " points="-3.9773599 13.4902303 12.0566297 13.4902303 12.0566297 14.4923546 -3.9773599 14.4923546"></polygon>
                            <polygon id="Rectangle" transform="translate(2.757027, 16.918151) rotate(-113.450000) translate(-2.757027, -16.918151) " points="-3.08869835 16.5841092 8.6027524 16.5841092 8.6027524 17.2521921 -3.08869835 17.2521921"></polygon>
                        </g>
                    </g>
                    <g id="Group-10-Copy" opacity="0.745675223" transform="translate(139.000000, 0.000000)">
                        <polygon id="Rectangle" fill="#FFFFFF" transform="translate(15.779269, 19.690269) rotate(-23.450000) translate(-15.779269, -19.690269) " points="6.0353124 3.27845539 25.5232257 3.27845539 25.5232257 36.1020818 6.0353124 36.1020818"></polygon>
                        <g id="Group" opacity="0.6" transform="translate(9.002885, 2.586562)" fill="#7489E1">
                            <polygon id="Rectangle" transform="translate(7.793712, 2.600532) rotate(-113.450000) translate(-7.793712, -2.600532) " points="5.70514202 1.05518529 9.88228171 1.05518529 9.88228171 4.14587948 5.70514202 4.14587948"></polygon>
                            <polygon id="Rectangle" transform="translate(5.039635, 13.991292) rotate(-113.450000) translate(-5.039635, -13.991292) " points="-2.9773599 13.4902303 13.0566297 13.4902303 13.0566297 14.4923546 -2.9773599 14.4923546"></polygon>
                            <polygon id="Rectangle" transform="translate(3.757027, 16.918151) rotate(-113.450000) translate(-3.757027, -16.918151) " points="-2.08869835 16.5841092 9.6027524 16.5841092 9.6027524 17.2521921 -2.08869835 17.2521921"></polygon>
                        </g>
                    </g>
                    <g id="Group-5" opacity="0.745675223" transform="translate(2.000000, 122.000000)">
                        <polygon id="Rectangle" fill="#FFFFFF" transform="translate(18.636638, 14.054894) rotate(-16.600000) translate(-18.636638, -14.054894) " points="2.22482449 4.31093743 35.0484509 4.31093743 35.0484509 23.7988508 2.22482449 23.7988508"></polygon>
                        <g id="Group" opacity="0.6" transform="translate(1.724375, 8.915645)" fill="#69CE7F">
                            <polygon id="Rectangle" transform="translate(2.646707, 2.373067) rotate(163.400000) translate(-2.646707, -2.373067) " points="0.558136999 0.827719735 4.73527668 0.827719735 4.73527668 3.91841393 0.558136999 3.91841393"></polygon>
                            <polygon id="Rectangle" transform="translate(13.630590, 6.461379) rotate(163.400000) translate(-13.630590, -6.461379) " points="5.61359507 5.96031642 21.6475847 5.96031642 21.6475847 6.96244077 5.61359507 6.96244077"></polygon>
                            <polygon id="Rectangle" transform="translate(16.381146, 8.081119) rotate(163.400000) translate(-16.381146, -8.081119) " points="10.5354211 7.74707743 22.2268718 7.74707743 22.2268718 8.41516033 10.5354211 8.41516033"></polygon>
                        </g>
                    </g>
                    <g id="Group-14" opacity="0.75" transform="translate(96.000000, 142.000000)">
                        <polygon id="Rectangle" fill="#FFFFFF" transform="translate(18.783449, 12.934317) rotate(-79.027760) translate(-18.783449, -12.934317) " points="9.05655942 -3.44874994 28.510339 -3.44874994 28.510339 29.3173847 9.05655942 29.3173847"></polygon>
                        <g id="Group" opacity="0.6" transform="translate(5.173125, 1.723416)" fill="#F55F44">
                            <polygon id="Rectangle" transform="translate(2.594809, 2.023611) rotate(-168.980000) translate(-2.594809, -2.023611) " points="0.50623952 0.478263558 4.68337921 0.478263558 4.68337921 3.56895775 0.50623952 3.56895775"></polygon>
                            <polygon id="Rectangle" transform="translate(10.430635, 10.738223) rotate(-168.980000) translate(-10.430635, -10.738223) " points="2.41364005 10.2371607 18.4476297 10.2371607 18.4476297 11.2392851 2.41364005 11.2392851"></polygon>
                            <polygon id="Rectangle" transform="translate(12.116365, 13.451427) rotate(-168.980000) translate(-12.116365, -13.451427) " points="6.27063993 13.1173858 17.9620907 13.1173858 17.9620907 13.7854687 6.27063993 13.7854687"></polygon>
                        </g>
                    </g>
                    <g id="Group-7" opacity="0.745675223" transform="translate(62.805332, 175.356475)">
                        <polygon id="Rectangle" fill="#FFFFFF" transform="translate(15.634129, 19.447828) rotate(-23.450000) translate(-15.634129, -19.447828) " points="5.89017224 3.03601511 25.3780856 3.03601511 25.3780856 35.8596415 5.89017224 35.8596415"></polygon>
                        <g id="Group" opacity="0.6" transform="translate(9.862886, 2.212649)" fill="#71C2E8">
                            <polygon id="Rectangle" transform="translate(6.785731, 2.732155) rotate(-113.450000) translate(-6.785731, -2.732155) " points="4.6971612 1.18680799 8.87430089 1.18680799 8.87430089 4.27750219 4.6971612 4.27750219"></polygon>
                            <polygon id="Rectangle" transform="translate(4.034897, 14.119672) rotate(-113.450000) translate(-4.034897, -14.119672) " points="-3.9820976 13.6186099 12.051892 13.6186099 12.051892 14.6207342 -3.9820976 14.6207342"></polygon>
                            <polygon id="Rectangle" transform="translate(2.752021, 17.045240) rotate(-113.450000) translate(-2.752021, -17.045240) " points="-3.09370391 16.7111982 8.59774684 16.7111982 8.59774684 17.3792811 -3.09370391 17.3792811"></polygon>
                        </g>
                    </g>
                    <g id="Group-6" opacity="0.745675223" transform="translate(23.000000, 31.000000)">
                        <polygon id="Rectangle" fill="#FFFFFF" transform="translate(19.171765, 14.944812) rotate(-16.808692) translate(-19.171765, -14.944812) " points="2.71324491 5.17312492 35.6302857 5.17312492 35.6302857 24.7164999 2.71324491 24.7164999"></polygon>
                        <g id="Group" opacity="0.6" transform="translate(1.724375, 10.107098)" fill="#E1B674">
                            <polygon id="Rectangle" transform="translate(2.576598, 2.300253) rotate(163.400000) translate(-2.576598, -2.300253) " points="0.488028116 0.754906092 4.6651678 0.754906092 4.6651678 3.84560028 0.488028116 3.84560028"></polygon>
                            <polygon id="Rectangle" transform="translate(13.557373, 6.389491) rotate(163.400000) translate(-13.557373, -6.389491) " points="5.54037823 5.8884293 21.5743678 5.8884293 21.5743678 6.89055365 5.54037823 6.89055365"></polygon>
                            <polygon id="Rectangle" transform="translate(16.307930, 8.009232) rotate(163.400000) translate(-16.307930, -8.009232) " points="10.4622042 7.67519031 22.153655 7.67519031 22.153655 8.34327321 10.4622042 8.34327321"></polygon>
                        </g>
                    </g>
                    <g id="Group-8" opacity="0.745675223" transform="translate(71.000000, 3.000000)">
                        <polygon id="Rectangle" fill="#FFFFFF" transform="translate(18.226915, 12.963063) rotate(-78.980000) translate(-18.226915, -12.963063) " points="8.48295796 -3.44874994 27.9708713 -3.44874994 27.9708713 29.3748764 8.48295796 29.3748764"></polygon>
                        <g id="Group" opacity="0.6" transform="translate(4.310937, 1.953656)" fill="#BDBCBD">
                            <polygon id="Rectangle" transform="translate(2.531565, 1.953733) rotate(-168.980000) translate(-2.531565, -1.953733) " points="0.442995563 0.40838566 4.62013525 0.40838566 4.62013525 3.49907985 0.442995563 3.49907985"></polygon>
                            <polygon id="Rectangle" transform="translate(10.364828, 10.664542) rotate(-168.980000) translate(-10.364828, -10.664542) " points="2.3478327 10.1634796 18.3818223 10.1634796 18.3818223 11.165604 2.3478327 11.165604"></polygon>
                            <polygon id="Rectangle" transform="translate(12.047315, 13.377746) rotate(-168.980000) translate(-12.047315, -13.377746) " points="6.20158946 13.0437047 17.8930402 13.0437047 17.8930402 13.7117876 6.20158946 13.7117876"></polygon>
                        </g>
                    </g>
                    <g id="Group-4" opacity="0.75" transform="translate(162.661279, 110.796209)">
                        <polygon id="Rectangle" fill="#FFFFFF" transform="translate(15.556457, 19.103135) rotate(-23.450000) translate(-15.556457, -19.103135) " points="5.8125 2.69132159 25.3004133 2.69132159 25.3004133 35.514948 5.8125 35.514948"></polygon>
                        <g id="Group" opacity="0.6" transform="translate(8.884574, 1.937500)" fill="#69CE7F">
                            <polygon id="Rectangle" transform="translate(7.691423, 2.660811) rotate(-113.450000) translate(-7.691423, -2.660811) " points="5.60285272 1.11546394 9.77999241 1.11546394 9.77999241 4.20615813 5.60285272 4.20615813"></polygon>
                            <polygon id="Rectangle" transform="translate(4.937346, 14.051571) rotate(-113.450000) translate(-4.937346, -14.051571) " points="-3.0796492 13.5505089 12.9543404 13.5505089 12.9543404 14.5526333 -3.0796492 14.5526333"></polygon>
                            <polygon id="Rectangle" transform="translate(3.656422, 16.970920) rotate(-113.450000) translate(-3.656422, -16.970920) " points="-2.18930298 16.6368789 9.50214777 16.6368789 9.50214777 17.3049618 -2.18930298 17.3049618"></polygon>
                        </g>
                    </g>
                    <circle id="Oval" fill="#535461" opacity="0.25" cx="20.7235424" cy="17.8673585" r="1.77398712"></circle>
                    <circle id="Oval" fill="#535461" opacity="0.25" cx="205.925203" cy="173.24528" r="1.77398712"></circle>
                    <circle id="Oval" fill="#535461" opacity="0.25" cx="49.2273317" cy="164.423991" r="1.77398712"></circle>
                    <circle id="Oval" fill="#535461" opacity="0.25" cx="222.416473" cy="139.730868" r="1.77398712"></circle>
                    <circle id="Oval" fill="#535461" opacity="0.25" cx="239.108816" cy="58.3544795" r="1.77398712"></circle>
                    <polygon id="Path" fill="#535461" opacity="0.25" points="108.138622 1.57939987 106.562466 1.57939987 106.562466 0 105.917085 0 105.917085 1.57939987 104.340928 1.57939987 104.340928 2.2215378 105.917085 2.2215378 105.917085 3.79769454 106.562466 3.79769454 106.562466 2.2215378 108.138622 2.2215378"></polygon>
                    <polygon id="Path" fill="#535461" opacity="0.25" points="47.4436153 23.7503797 45.8674585 23.7503797 45.8674585 22.174223 45.2220775 22.174223 45.2220775 23.7503797 43.6459207 23.7503797 43.6459207 24.3957608 45.2220775 24.3957608 45.2220775 25.9719175 45.8674585 25.9719175 45.8674585 24.3957608 47.4436153 24.3957608"></polygon>
                    <polygon id="Path" fill="#535461" opacity="0.25" points="22.7537361 113.821576 21.1775793 113.821576 21.1775793 112.245419 20.5321983 112.245419 20.5321983 113.821576 18.9560415 113.821576 18.9560415 114.466957 20.5321983 114.466957 20.5321983 116.043114 21.1775793 116.043114 21.1775793 114.466957 22.7537361 114.466957"></polygon>
                    <polygon id="Path" fill="#535461" opacity="0.25" points="19.2090049 49.5883237 17.6296051 49.5883237 17.6296051 48.0089239 16.9874671 48.0089239 16.9874671 49.5883237 15.4080673 49.5883237 15.4080673 50.2304617 16.9874671 50.2304617 16.9874671 51.8098615 17.6296051 51.8098615 17.6296051 50.2304617 19.2090049 50.2304617"></polygon>
                    <polygon id="Path" fill="#535461" opacity="0.25" points="3.79769454 93.7271988 2.2215378 93.7271988 2.2215378 92.147799 1.57939987 92.147799 1.57939987 93.7271988 0 93.7271988 0 94.3693368 1.57939987 94.3693368 1.57939987 95.9454935 2.2215378 95.9454935 2.2215378 94.3693368 3.79769454 94.3693368"></polygon>
                    <polygon id="Path" fill="#535461" opacity="0.25" points="281.240199 70.9669765 279.664042 70.9669765 279.664042 69.3908198 279.018661 69.3908198 279.018661 70.9669765 277.442505 70.9669765 277.442505 71.6123576 279.018661 71.6123576 279.018661 73.1885143 279.664042 73.1885143 279.664042 71.6123576 281.240199 71.6123576"></polygon>
                    <polygon id="Path" fill="#535461" opacity="0.25" points="226.292002 91.4862023 224.715845 91.4862023 224.715845 89.9068024 224.070464 89.9068024 224.070464 91.4862023 222.494308 91.4862023 222.494308 92.1283402 224.070464 92.1283402 224.070464 93.7077401 224.715845 93.7077401 224.715845 92.1283402 226.292002 92.1283402"></polygon>
                    <polygon id="Path" fill="#535461" opacity="0.25" points="179.370529 36.1455877 177.791129 36.1455877 177.791129 34.569431 177.148991 34.569431 177.148991 36.1455877 175.569592 36.1455877 175.569592 36.7909688 177.148991 36.7909688 177.148991 38.3671255 177.791129 38.3671255 177.791129 36.7909688 179.370529 36.7909688"></polygon>
                </g>
            </g>
        </g>
    </g>
</svg>