<svg width="155" height="102" viewBox="0 0 155 102" fill="none" xmlns="http://www.w3.org/2000/svg">
<path fill-rule="evenodd" clip-rule="evenodd" d="M49 0C21.938 0 0 21.938 0 49V53C0 80.062 21.938 102 49 102H106C133.062 102 155 80.062 155 53V49C155 21.938 133.062 0 106 0H49ZM103 92C125.644 92 144 73.6437 144 51C144 28.3563 125.644 10 103 10C80.3563 10 62 28.3563 62 51C62 73.6437 80.3563 92 103 92Z" fill="#EF3061"/>
<path d="M109.199 36C106.717 36 104.315 36.9369 102.5 38.5975C100.692 36.9369 98.2826 36 95.8076 36C90.4022 36 86 40.3032 86 45.5951C86 56.1594 101.497 65.5154 102.157 65.9031C102.262 65.9677 102.381 66 102.5 66C102.619 66 102.738 65.9677 102.843 65.9031C103.503 65.5154 119 56.1594 119 45.5951C119 40.3032 114.604 36 109.199 36Z" fill="#EF3061"/>
</svg>
