<svg width="130" height="129" viewBox="0 0 130 129" xmlns="http://www.w3.org/2000/svg">
<path d="M64.5834 0C51.81 0 39.3235 3.77308 28.7028 10.8421C18.0821 17.9112 9.8043 27.9586 4.91614 39.714C0.0279829 51.4694 -1.25098 64.4047 1.24098 76.8841C3.73294 89.3636 9.88391 100.827 18.9161 109.824C27.9482 118.821 39.4558 124.948 51.9838 127.431C64.5117 129.913 77.4973 128.639 89.2983 123.77C101.099 118.9 111.186 110.655 118.282 100.075C125.379 89.4954 129.167 77.0573 129.167 64.3333C129.167 55.885 127.496 47.5193 124.251 39.714C121.005 31.9087 116.248 24.8167 110.251 18.8428C104.254 12.8689 97.134 8.13014 89.2983 4.89708C81.4627 1.66403 73.0646 0 64.5834 0V0ZM83.9584 70.7667H71.0417V83.6333C71.0417 85.3395 70.3613 86.9759 69.1501 88.1824C67.9389 89.3889 66.2962 90.0667 64.5834 90.0667C62.8705 90.0667 61.2278 89.3889 60.0166 88.1824C58.8055 86.9759 58.125 85.3395 58.125 83.6333V70.7667H45.2084C43.4955 70.7667 41.8528 70.0889 40.6416 68.8824C39.4305 67.6759 38.75 66.0396 38.75 64.3333C38.75 62.6271 39.4305 60.9908 40.6416 59.7843C41.8528 58.5778 43.4955 57.9 45.2084 57.9H58.125V45.0333C58.125 43.3271 58.8055 41.6908 60.0166 40.4843C61.2278 39.2778 62.8705 38.6 64.5834 38.6C66.2962 38.6 67.9389 39.2778 69.1501 40.4843C70.3613 41.6908 71.0417 43.3271 71.0417 45.0333V57.9H83.9584C85.6712 57.9 87.3139 58.5778 88.5251 59.7843C89.7363 60.9908 90.4167 62.6271 90.4167 64.3333C90.4167 66.0396 89.7363 67.6759 88.5251 68.8824C87.3139 70.0889 85.6712 70.7667 83.9584 70.7667Z"/>
</svg>
