<svg width="86" height="79" viewBox="0 0 86 79" xmlns="http://www.w3.org/2000/svg">
<path d="M64.8186 0.473349C57.1755 0.0478791 49.8635 2.24157 45.9492 6.82118L49.3304 14.4561L50.1767 16.3671L48.7309 17.5683L38.6744 25.9229L50.1176 32.8832L51.6676 33.826L50.3734 34.96L40.4996 43.6118L47.5439 47.3188L48.1789 47.6529L47.7581 48.1895L38.0842 60.5275L46.4148 48.0867L38.7365 44.4967L37.721 44.0218L38.544 43.1933L47.3153 34.3623L34.4896 27.8223L32.2379 26.674L34.132 24.7619L43.6851 15.118L38.6301 5.41033C34.5143 1.80199 27.9855 0.094609 21.1812 0.473349C9.91222 1.10067 -1.59648 12.6009 1.2807 27.865C4.15764 43.1277 42.9933 78.8783 42.9999 78.8844C43.0207 78.8652 81.8427 43.1249 84.7191 27.865C87.5963 12.6009 76.0876 1.10067 64.8186 0.473349Z" />
</svg>
