<svg width="28" height="32" viewBox="0 0 28 32" xmlns="http://www.w3.org/2000/svg">
<path d="M23.59 31.7499H4.41004C3.48525 31.7473 2.59909 31.3787 1.94516 30.7248C1.29123 30.0709 0.922682 29.1847 0.920044 28.2599V7.84992C0.920044 6.92431 1.28774 6.03662 1.94224 5.38211C2.59674 4.72761 3.48444 4.35992 4.41004 4.35992H9.20004C9.38129 3.2172 9.96426 2.17663 10.8441 1.42531C11.724 0.673999 12.843 0.26123 14 0.26123C15.157 0.26123 16.2761 0.673999 17.156 1.42531C18.0358 2.17663 18.6188 3.2172 18.8 4.35992H23.59C24.5156 4.35992 25.4033 4.72761 26.0578 5.38211C26.7123 6.03662 27.08 6.92431 27.08 7.84992V28.2599C27.0774 29.1847 26.7089 30.0709 26.0549 30.7248C25.401 31.3787 24.5148 31.7473 23.59 31.7499ZM4.41004 5.85992C3.87961 5.85992 3.3709 6.07063 2.99583 6.4457C2.62076 6.82078 2.41004 7.32948 2.41004 7.85992V28.2599C2.41004 28.7903 2.62076 29.2991 2.99583 29.6741C3.3709 30.0492 3.87961 30.2599 4.41004 30.2599H23.59C24.1205 30.2599 24.6292 30.0492 25.0043 29.6741C25.3793 29.2991 25.59 28.7903 25.59 28.2599V7.84992C25.59 7.31948 25.3793 6.81078 25.0043 6.4357C24.6292 6.06063 24.1205 5.84992 23.59 5.84992H18.11C17.9119 5.84733 17.7227 5.76748 17.5826 5.62738C17.4425 5.48729 17.3626 5.29802 17.36 5.09992C17.36 4.20879 17.006 3.35416 16.3759 2.72404C15.7458 2.09391 14.8912 1.73992 14 1.73992C13.1089 1.73992 12.2543 2.09391 11.6242 2.72404C10.994 3.35416 10.64 4.20879 10.64 5.09992C10.6375 5.29802 10.5576 5.48729 10.4175 5.62738C10.2774 5.76748 10.0882 5.84733 9.89004 5.84992L4.41004 5.85992Z"/>
<path d="M14 6.10986C14.5523 6.10986 15 5.66215 15 5.10986C15 4.55758 14.5523 4.10986 14 4.10986C13.4477 4.10986 13 4.55758 13 5.10986C13 5.66215 13.4477 6.10986 14 6.10986Z"/>
<path d="M7 14C7.55228 14 8 13.5523 8 13C8 12.4477 7.55228 12 7 12C6.44772 12 6 12.4477 6 13C6 13.5523 6.44772 14 7 14Z"/>
<path d="M21 13.75H11C10.8011 13.75 10.6103 13.671 10.4697 13.5303C10.329 13.3897 10.25 13.1989 10.25 13C10.25 12.8011 10.329 12.6103 10.4697 12.4697C10.6103 12.329 10.8011 12.25 11 12.25H21C21.1989 12.25 21.3897 12.329 21.5303 12.4697C21.671 12.6103 21.75 12.8011 21.75 13C21.75 13.1989 21.671 13.3897 21.5303 13.5303C21.3897 13.671 21.1989 13.75 21 13.75V13.75Z"/>
<path d="M7 20C7.55228 20 8 19.5523 8 19C8 18.4477 7.55228 18 7 18C6.44772 18 6 18.4477 6 19C6 19.5523 6.44772 20 7 20Z"/>
<path d="M21 19.75H11C10.8011 19.75 10.6103 19.671 10.4697 19.5303C10.329 19.3897 10.25 19.1989 10.25 19C10.25 18.8011 10.329 18.6103 10.4697 18.4697C10.6103 18.329 10.8011 18.25 11 18.25H21C21.1989 18.25 21.3897 18.329 21.5303 18.4697C21.671 18.6103 21.75 18.8011 21.75 19C21.75 19.1989 21.671 19.3897 21.5303 19.5303C21.3897 19.671 21.1989 19.75 21 19.75V19.75Z"/>
<path d="M7 26C7.55228 26 8 25.5523 8 25C8 24.4477 7.55228 24 7 24C6.44772 24 6 24.4477 6 25C6 25.5523 6.44772 26 7 26Z"/>
<path d="M21 25.75H11C10.8011 25.75 10.6103 25.671 10.4697 25.5303C10.329 25.3897 10.25 25.1989 10.25 25C10.25 24.8011 10.329 24.6103 10.4697 24.4697C10.6103 24.329 10.8011 24.25 11 24.25H21C21.1989 24.25 21.3897 24.329 21.5303 24.4697C21.671 24.6103 21.75 24.8011 21.75 25C21.75 25.1989 21.671 25.3897 21.5303 25.5303C21.3897 25.671 21.1989 25.75 21 25.75V25.75Z"/>
</svg>
