<svg width="80" height="96" viewBox="0 0 80 96" xmlns="http://www.w3.org/2000/svg">
<path d="M35 30.7C35 30.7 34.5 27.9 33.9 26C33.3 24.1 31.9 22.2 30.3 20.9C28.8 19.7 27 18.9 25.1 18.6C23.5 19.5 21.7 20 19.7 20C17.7 20 15.9 19.5 14.3 18.6C12.4 18.9 10.6 19.8 9.09998 20.9C7.49998 22.2 5.99998 24.2 5.49998 26C4.99998 27.8 4.39997 30.7 4.39997 30.7L0.399975 48.4C0.0999746 49.8 0.899975 51.1 2.29998 51.5C3.69998 51.9 5.09998 51.1 5.49998 49.7L10.7 30L9.09998 49.5C8.99998 51 9.79998 52.4 11 53.1C10.1 66 9.19997 79 8.39997 91.9C8.29997 93.7 9.59997 95.2 11.3 95.4C13.1 95.6 14.8 94.3 15 92.5C16.4 80.6 17.7 68.7 19 56.7C19.4 56.7 19.9 56.7 20.3 56.7L24.2 92.5C24.4 94.3 26 95.6 27.7 95.5C29.5 95.4 30.9 93.8 30.8 91.9L28.2 53.1C29.5 52.4 30.3 51 30.2 49.5L28.6 29.9L33.9 49.6C34.3 50.9 35.6 51.8 37 51.5C38.4 51.2 39.3 49.8 39 48.4L35 30.7Z"/>
<path d="M19.6999 17.3C24.3391 17.3 28.0999 13.5392 28.0999 8.9C28.0999 4.26081 24.3391 0.5 19.6999 0.5C15.0607 0.5 11.2999 4.26081 11.2999 8.9C11.2999 13.5392 15.0607 17.3 19.6999 17.3Z"/>
<path d="M79.6 47.5L74.4 26.6C74 24.8001 73 23 71.6 21.6C70.2 20.2 68.5 19.2 66.5 18.8C65 19.6 63.3 20 61.5 20C59.7 20 58 19.6 56.5 18.8C54.5 19.2 52.7 20.2 51.4 21.6C50 23 49 24.8001 48.6 26.6L43.4 47.5C43.1 48.8 43.8 50.1001 45.1 50.4001C46.4 50.8001 47.7 50.0001 48.1 48.7001L53.2 31L53.3 45.4001L46.2 61.5C45.3 63.5 46.8 65.8001 49 65.8001H52.2L50.4 92.2C50.3 93.8 51.5 95.2 53 95.3C54.6 95.5 56.1 94.3 56.2 92.7L59.3 66H63.7L66.5 92.9001C66.7 94.5001 68.1 95.7 69.6 95.5C71.2 95.4 72.5 94.0001 72.3 92.4001L70.6 66H73.9C76.1 66 77.6 63.7001 76.7 61.7001L69.6 45.6L69.7 31L74.8 48.7001C75.2 49.9001 76.5 50.7001 77.7 50.4001C79.1 50.1001 79.9 48.8 79.6 47.5Z"/>
<path d="M61.5 17.3C66.1392 17.3 69.9 13.5392 69.9 8.9C69.9 4.26081 66.1392 0.5 61.5 0.5C56.8608 0.5 53.1 4.26081 53.1 8.9C53.1 13.5392 56.8608 17.3 61.5 17.3Z"/>
</svg>
