<svg width="28" height="28" viewBox="0 0 28 28" xmlns="http://www.w3.org/2000/svg">
<path d="M8 2H20C20.2652 2 20.5196 1.89464 20.7071 1.70711C20.8946 1.51957 21 1.26522 21 1C21 0.734784 20.8946 0.48043 20.7071 0.292893C20.5196 0.105357 20.2652 0 20 0H8C7.73478 0 7.48043 0.105357 7.29289 0.292893C7.10536 0.48043 7 0.734784 7 1C7 1.26522 7.10536 1.51957 7.29289 1.70711C7.48043 1.89464 7.73478 2 8 2V2Z"/>
<path d="M27 3H1C0.734784 3 0.48043 3.10536 0.292893 3.29289C0.105357 3.48043 0 3.73478 0 4C0 4.26522 0.105357 4.51957 0.292893 4.70711C0.48043 4.89464 0.734784 5 1 5H3L3.88 25.14C3.91616 25.9146 4.25086 26.6451 4.8139 27.1783C5.37694 27.7115 6.12457 28.006 6.9 28H21.1C21.872 28.0008 22.6146 27.7041 23.1733 27.1714C23.7321 26.6387 24.064 25.9111 24.1 25.14L25 5H27C27.2652 5 27.5196 4.89464 27.7071 4.70711C27.8946 4.51957 28 4.26522 28 4C28 3.73478 27.8946 3.48043 27.7071 3.29289C27.5196 3.10536 27.2652 3 27 3ZM8 23V9C8 8.73478 8.10536 8.48043 8.29289 8.29289C8.48043 8.10536 8.73478 8 9 8C9.26522 8 9.51957 8.10536 9.70711 8.29289C9.89464 8.48043 10 8.73478 10 9V23C10 23.2652 9.89464 23.5196 9.70711 23.7071C9.51957 23.8946 9.26522 24 9 24C8.73478 24 8.48043 23.8946 8.29289 23.7071C8.10536 23.5196 8 23.2652 8 23ZM13 23V9C13 8.73478 13.1054 8.48043 13.2929 8.29289C13.4804 8.10536 13.7348 8 14 8C14.2652 8 14.5196 8.10536 14.7071 8.29289C14.8946 8.48043 15 8.73478 15 9V23C15 23.2652 14.8946 23.5196 14.7071 23.7071C14.5196 23.8946 14.2652 24 14 24C13.7348 24 13.4804 23.8946 13.2929 23.7071C13.1054 23.5196 13 23.2652 13 23ZM20 23C20 23.2652 19.8946 23.5196 19.7071 23.7071C19.5196 23.8946 19.2652 24 19 24C18.7348 24 18.4804 23.8946 18.2929 23.7071C18.1054 23.5196 18 23.2652 18 23V9C18 8.73478 18.1054 8.48043 18.2929 8.29289C18.4804 8.10536 18.7348 8 19 8C19.2652 8 19.5196 8.10536 19.7071 8.29289C19.8946 8.48043 20 8.73478 20 9V23Z"/>
</svg>
